<svg width="82" height="69" viewBox="0 0 82 69" fill="none" xmlns="http://www.w3.org/2000/svg">
<mask id="mask0_4_56" style="mask-type:luminance" maskUnits="userSpaceOnUse" x="0" y="0" width="82" height="69">
<path d="M82 0H0V68.23H82V0Z" fill="white"/>
</mask>
<g mask="url(#mask0_4_56)">
<path d="M18.491 11.8799V50.6199C18.4657 53.0553 17.4804 55.3824 15.7493 57.0956C14.0182 58.8088 11.681 59.7698 9.2455 59.7698C6.80996 59.7698 4.47279 58.8088 2.74168 57.0956C1.01056 55.3824 0.0253286 53.0553 0 50.6199V11.8799C0.00159084 9.42808 0.97697 7.07726 2.71162 5.34448C4.44628 3.6117 6.79815 2.63886 9.25 2.63992C10.7833 2.63585 12.2929 3.01756 13.64 3.74993C13.661 3.75893 13.67 3.76993 13.68 3.76993C13.6852 3.77563 13.6923 3.7792 13.7 3.77993C14.4667 4.19824 15.1676 4.72726 15.78 5.34993C16.6396 6.20627 17.3215 7.22394 17.7868 8.34454C18.252 9.46514 18.4913 10.6666 18.491 11.8799Z" fill="black"/>
<path d="M39.6199 20.25V58.98C39.6199 60.1941 39.3808 61.3963 38.9161 62.5179C38.4515 63.6396 37.7706 64.6587 36.9121 65.5172C36.0536 66.3757 35.0344 67.0567 33.9128 67.5213C32.7911 67.9859 31.589 68.225 30.3749 68.225C29.1608 68.225 27.9586 67.9859 26.837 67.5213C25.7153 67.0567 24.6962 66.3757 23.8377 65.5172C22.9792 64.6587 22.2982 63.6396 21.8336 62.5179C21.369 61.3963 21.1299 60.1941 21.1299 58.98V20.25C21.1296 19.0352 21.3687 17.8322 21.8335 16.7099C22.2982 15.5875 22.9796 14.5677 23.8386 13.7087C24.6976 12.8497 25.7174 12.1683 26.8397 11.7036C27.9621 11.2388 29.1651 10.9997 30.3799 11C30.7099 11 31.0299 11.02 31.3399 11.049H31.3609C33.6291 11.2956 35.7264 12.371 37.2506 14.0688C38.7748 15.7666 39.6185 17.9684 39.6199 20.25Z" fill="black"/>
<path d="M60.8699 9.23989V47.9799C60.8699 50.4318 59.8959 52.7833 58.1621 54.5171C56.4283 56.2509 54.0768 57.2249 51.6249 57.2249C49.173 57.2249 46.8215 56.2509 45.0877 54.5171C43.3539 52.7833 42.3799 50.4318 42.3799 47.9799V9.23989C42.3799 8.02563 42.6192 6.82328 43.0842 5.70158C43.5492 4.57988 44.2307 3.56083 45.0898 2.70268C45.9488 1.84454 46.9686 1.16414 48.0908 0.700371C49.213 0.236606 50.4156 -0.00142473 51.6299 -0.000110599C52.0114 -0.00404107 52.3926 0.0227117 52.7699 0.0798893H52.7899C54.8232 0.325896 56.7146 1.24872 58.1599 2.69989C59.0195 3.55819 59.7014 4.57766 60.1664 5.69991C60.6315 6.82215 60.8705 8.02511 60.8699 9.23989Z" fill="black"/>
<path d="M81.9998 19.8089V58.5399C81.9998 59.754 81.7606 60.9562 81.296 62.0778C80.8314 63.1995 80.1504 64.2186 79.292 65.0771C78.4335 65.9356 77.4143 66.6166 76.2927 67.0812C75.171 67.5458 73.9688 67.7849 72.7548 67.7849C71.5407 67.7849 70.3385 67.5458 69.2169 67.0812C68.0952 66.6166 67.076 65.9356 66.2176 65.0771C65.3591 64.2186 64.6781 63.1995 64.2135 62.0778C63.7489 60.9562 63.5098 59.754 63.5098 58.5399V19.8089C63.5096 18.5941 63.7488 17.3913 64.2136 16.2689C64.6784 15.1466 65.3598 14.1268 66.2187 13.2679C67.0777 12.4089 68.0975 11.7276 69.2198 11.2628C70.3421 10.798 71.545 10.5588 72.7598 10.5589C73.9832 10.5539 75.1947 10.7993 76.3198 11.2799H76.3298C76.335 11.2856 76.3421 11.2892 76.3498 11.2899C77.4506 11.7499 78.4497 12.4228 79.2898 13.2699C80.1519 14.1261 80.8354 15.1451 81.3007 16.2676C81.7659 17.3901 82.0035 18.5938 81.9998 19.8089Z" fill="black"/>
<g style="mix-blend-mode:multiply" opacity="0.3">
<path d="M18.491 23.0298V50.6198C18.4657 53.0552 17.4804 55.3822 15.7493 57.0954C14.0182 58.8087 11.681 59.7696 9.2455 59.7696C6.80996 59.7696 4.47279 58.8087 2.74168 57.0954C1.01056 55.3822 0.0253286 53.0552 0 50.6198V49.0298C0 49.0298 0.0200014 49.2588 0.0600014 49.6788C0.0800014 50.1088 0.140001 50.7398 0.241001 51.5088C0.411368 52.4253 0.707145 53.314 1.12 54.1498C1.84996 55.6345 2.98656 56.8813 4.39751 57.7453C5.80846 58.6092 7.43575 59.0546 9.09 59.0298C9.84022 59.022 10.5863 58.9178 11.31 58.7198C12.8388 58.2894 14.2172 57.4409 15.29 56.2698C16.3886 55.0783 17.112 53.5897 17.37 51.9898C17.39 51.7898 17.44 51.6298 17.45 51.3998L17.491 50.7198C17.51 50.3698 17.5 49.8398 17.51 49.4098C17.51 48.5098 17.52 47.5998 17.53 46.7098C17.53 44.9198 17.59 43.1598 17.611 41.4498C17.68 38.0398 17.79 34.8588 17.92 32.1298C18.161 26.6698 18.491 23.0298 18.491 23.0298Z" fill="black"/>
</g>
<g style="mix-blend-mode:overlay" opacity="0.6">
<path d="M13.681 3.77C13.3333 3.65666 12.9794 3.56318 12.621 3.49C11.6971 3.27585 10.7484 3.18838 9.801 3.23C9.50306 3.24112 9.20612 3.27118 8.912 3.32C8.60219 3.35808 8.29496 3.41485 7.992 3.49C5.92909 3.95659 4.08928 5.11817 2.781 6.78C2.32493 7.33883 1.94186 7.95343 1.641 8.609C1.35377 9.24371 1.13585 9.90755 0.991001 10.589C0.917437 10.9357 0.86368 11.2862 0.829998 11.639L0.799999 11.909C0.799999 11.919 0.789999 12.069 0.779999 12.139C0.769999 12.319 0.760001 12.499 0.741001 12.669C0.700001 13.369 0.63 14.029 0.57 14.639C0.448158 16.001 0.257918 17.3561 0 18.699V11.879C0.00184638 10.275 0.420736 8.69914 1.21555 7.30596C2.01036 5.91279 3.15378 4.75023 4.53357 3.9324C5.91336 3.11457 7.4821 2.66958 9.0858 2.64111C10.6895 2.61264 12.273 3.00166 13.681 3.77Z" fill="black"/>
</g>
<g style="mix-blend-mode:multiply" opacity="0.3">
<path d="M39.6199 31.3589V58.9799C39.6199 60.194 39.3808 61.3961 38.9161 62.5178C38.4515 63.6395 37.7706 64.6586 36.9121 65.5171C36.0536 66.3756 35.0344 67.0565 33.9128 67.5212C32.7911 67.9858 31.589 68.2249 30.3749 68.2249C29.1608 68.2249 27.9586 67.9858 26.837 67.5212C25.7153 67.0565 24.6962 66.3756 23.8377 65.5171C22.9792 64.6586 22.2982 63.6395 21.8336 62.5178C21.369 61.3961 21.1299 60.194 21.1299 58.9799V57.8599C21.1299 57.8599 21.1499 58.0899 21.1899 58.5089C21.2253 59.1146 21.3089 59.7165 21.4399 60.3089C21.8915 62.368 23.0394 64.2085 24.6899 65.5199C25.7594 66.3621 27.0082 66.9471 28.3399 67.2299C28.6802 67.2987 29.0241 67.3488 29.3699 67.3799C29.7493 67.406 30.1298 67.4127 30.5099 67.3999C31.2632 67.3586 32.0088 67.2273 32.7309 67.0089C34.2266 66.5183 35.5606 65.6299 36.5899 64.4389C37.6455 63.2276 38.3204 61.7319 38.5299 60.1389C38.5889 59.728 38.6223 59.3139 38.6299 58.8989L38.6399 57.5479C38.6399 56.6479 38.6499 55.7479 38.6609 54.8589C38.6609 53.0889 38.7199 51.3389 38.7409 49.6389C38.8099 46.2579 38.9199 43.0989 39.0499 40.3889C39.2899 34.9699 39.6199 31.3589 39.6199 31.3589Z" fill="black"/>
</g>
<g style="mix-blend-mode:overlay" opacity="0.6">
<path d="M31.3399 11.049C31.2499 11.07 30.8999 11.12 30.3499 11.2C30.0399 11.28 29.6609 11.34 29.2499 11.46C28.7911 11.5939 28.3404 11.7538 27.8999 11.939C27.3944 12.1625 26.9064 12.4236 26.4399 12.72C25.9361 13.0537 25.4581 13.4247 25.0099 13.83C24.5523 14.2737 24.1371 14.7591 23.7699 15.28C23.392 15.8084 23.0702 16.3748 22.8099 16.97C22.5563 17.566 22.3623 18.1857 22.2309 18.82C22.1638 19.1371 22.1134 19.4576 22.0799 19.78L22.0299 20.259L22.0099 20.78C21.9399 22.15 21.8299 23.429 21.6999 24.53C21.5781 25.763 21.3878 26.9882 21.1299 28.2V20.25C21.1296 19.0352 21.3687 17.8322 21.8335 16.7099C22.2982 15.5875 22.9796 14.5677 23.8386 13.7087C24.6976 12.8497 25.7174 12.1683 26.8397 11.7036C27.9621 11.2388 29.1651 10.9997 30.3799 11C30.7099 11 31.0299 11.02 31.3399 11.049Z" fill="black"/>
</g>
<g style="mix-blend-mode:multiply" opacity="0.3">
<path d="M60.8699 13.2V47.9799C60.8699 50.4319 59.8959 52.7834 58.1621 54.5172C56.4283 56.2509 54.0768 57.225 51.6249 57.225C49.173 57.225 46.8215 56.2509 45.0877 54.5172C43.3539 52.7834 42.3799 50.4319 42.3799 47.9799V47.2C42.3799 47.2 42.3999 47.45 42.4399 47.92C42.4941 48.5928 42.6112 49.259 42.7899 49.91C43.0776 50.9018 43.5306 51.8379 44.1299 52.679C44.8819 53.753 45.8619 54.6477 46.9999 55.299C48.3209 56.0659 49.8224 56.4666 51.3499 56.46C52.1595 56.4691 52.9659 56.3544 53.7409 56.1199C54.5565 55.8936 55.3323 55.5428 56.0409 55.08C57.5153 54.1117 58.654 52.711 59.3009 51.07L59.5309 50.45L59.6909 49.799C59.7509 49.5799 59.7609 49.3699 59.8009 49.16C59.8438 48.9325 59.8639 48.7014 59.8609 48.4699C59.9109 47.5699 59.8609 46.48 59.8709 45.5C59.8809 43.48 59.8909 41.4599 59.9109 39.4699C59.9109 37.4799 59.9709 35.53 59.9909 33.64C60.0609 29.85 60.1709 26.3199 60.3009 23.2899C60.5399 17.2299 60.8699 13.2 60.8699 13.2Z" fill="black"/>
</g>
<g style="mix-blend-mode:overlay" opacity="0.6">
<path d="M52.7699 0.0798893C52.6399 0.0998893 52.3099 0.149889 51.8199 0.209889C51.5199 0.229889 51.1299 0.358889 50.7099 0.428889C50.2492 0.556067 49.7953 0.706595 49.3499 0.879889C48.8387 1.09294 48.344 1.34363 47.8699 1.62989C47.3526 1.94614 46.8644 2.30755 46.4109 2.70989C46.1699 2.90989 45.9599 3.14989 45.7409 3.36989C45.5409 3.62989 45.3099 3.85889 45.1299 4.12989C44.7391 4.65141 44.4071 5.21449 44.1399 5.80889C43.8638 6.39793 43.6526 7.01522 43.5099 7.64989C43.4699 7.96989 43.3699 8.20989 43.3399 8.58989L43.2899 9.10889L43.2799 9.23989V9.24989L43.2699 9.25889V9.32989L43.2599 9.58989C43.1899 10.9699 43.0799 12.2499 42.9499 13.3499C42.8284 14.5862 42.6381 15.8148 42.3799 17.0299V9.23989C42.3799 8.02563 42.6192 6.82328 43.0842 5.70158C43.5492 4.57988 44.2307 3.56083 45.0898 2.70268C45.9488 1.84454 46.9686 1.16414 48.0908 0.700371C49.213 0.236606 50.4156 -0.00142473 51.6299 -0.000110599C52.0114 -0.00404107 52.3926 0.0227117 52.7699 0.0798893Z" fill="black"/>
</g>
<g style="mix-blend-mode:overlay" opacity="0.6">
<path d="M76.3198 11.2799C76.2298 11.2589 75.8698 11.1889 75.2998 11.1199C74.9698 11.0799 74.5698 11.0589 74.1198 11.0489C73.6183 11.047 73.1173 11.0774 72.6198 11.1399C72.0456 11.2254 71.4777 11.3487 70.9198 11.5089C70.3186 11.7028 69.7362 11.9508 69.1798 12.2499C67.9908 12.9006 66.9571 13.8013 66.1498 14.8899C65.7368 15.4348 65.3879 16.0253 65.1098 16.6499C64.8419 17.2538 64.6374 17.8838 64.4998 18.5299C64.425 18.8557 64.3748 19.1866 64.3498 19.5199L64.3198 19.7699L64.3098 19.8199L64.2998 19.8589L64.2898 19.9899C64.2798 20.1599 64.2698 20.3199 64.2598 20.4899C64.2098 21.1499 64.1498 21.7799 64.0798 22.3499C63.9584 23.6425 63.7681 24.9276 63.5098 26.1999V19.8089C63.5096 18.5941 63.7488 17.3913 64.2136 16.2689C64.6784 15.1466 65.3598 14.1268 66.2187 13.2679C67.0777 12.4089 68.0975 11.7276 69.2198 11.2628C70.3421 10.798 71.545 10.5588 72.7598 10.5589C73.9832 10.5539 75.1947 10.7993 76.3198 11.2799Z" fill="black"/>
</g>
<g style="mix-blend-mode:multiply" opacity="0.3">
<path d="M81.9998 33.7V58.54C81.9998 59.754 81.7606 60.9562 81.296 62.0779C80.8314 63.1995 80.1504 64.2187 79.292 65.0772C78.4335 65.9356 77.4143 66.6166 76.2927 67.0812C75.171 67.5458 73.9688 67.785 72.7548 67.785C71.5407 67.785 70.3385 67.5458 69.2169 67.0812C68.0952 66.6166 67.076 65.9356 66.2176 65.0772C65.3591 64.2187 64.6781 63.1995 64.2135 62.0779C63.7489 60.9562 63.5098 59.754 63.5098 58.54C63.5098 58.54 63.5398 58.75 63.5998 59.15C63.625 59.3871 63.6718 59.6214 63.7398 59.85C63.8017 60.1664 63.8886 60.4773 63.9998 60.78C64.5071 62.3142 65.4151 63.6849 66.63 64.7504C67.8449 65.8158 69.3225 66.5372 70.9098 66.84C71.2398 66.9 71.5498 66.92 71.8798 66.96L72.4398 66.97H72.8098L72.9398 66.95C73.645 66.9133 74.3433 66.7924 75.0198 66.59C76.4184 66.1568 77.6822 65.3714 78.6898 64.309C79.2034 63.7633 79.6468 63.1556 80.0098 62.5C80.3544 61.8354 80.6132 61.1298 80.7798 60.4C80.869 60.045 80.9325 59.6841 80.9698 59.32L81.0098 58.7V58.54L81.0198 58.429V58.1199C81.0198 57.2799 81.0298 56.439 81.0398 55.61C81.0398 53.96 81.0998 52.32 81.1198 50.75C81.1898 47.59 81.2998 44.64 81.4298 42.12C81.6698 37.059 81.9998 33.7 81.9998 33.7Z" fill="black"/>
</g>
</g>
</svg>
